<svg xmlns="http://www.w3.org/2000/svg" xmlns:xlink="http://www.w3.org/1999/xlink" viewBox="0 0 246 69.98"><defs><style>.cls-1{fill:#33b062;}.cls-2{fill:url(#무제_그라디언트_3);}.cls-3{fill:#fafffa;}.cls-4{fill:#231815;}.cls-5{fill:url(#무제_그라디언트_3-2);}.cls-6{fill:url(#무제_그라디언트_3-3);}.cls-7{fill:#fff;}</style><linearGradient id="무제_그라디언트_3" x1="37.22" y1="61.18" x2="69.25" y2="49.68" gradientTransform="matrix(1, 0, 0, -1, 0, 69.93)" gradientUnits="userSpaceOnUse"><stop offset="0" stop-color="#8ec321"/><stop offset="1" stop-color="#7ecbd8"/></linearGradient><linearGradient id="무제_그라디언트_3-2" x1="0" y1="32.73" x2="8.04" y2="32.73" xlink:href="#무제_그라디언트_3"/><linearGradient id="무제_그라디언트_3-3" x1="31.85" y1="63.05" x2="39.89" y2="63.05" xlink:href="#무제_그라디언트_3"/></defs><g id="레이어_2" data-name="레이어 2"><g id="레이어_1-2" data-name="레이어 1"><g id="레이어_2-2" data-name="레이어 2"><g id="레이어_1-2-2" data-name="레이어 1-2"><path class="cls-1" d="M71.24,14.77a1.44,1.44,0,0,0-.4-.45c-.72-.49-1.62-.08-2.32.22-.88.37-1.76.75-2.67,1.06A20.56,20.56,0,0,1,58,16.81a15.12,15.12,0,0,1-7.4-2.7.81.81,0,0,0-.54-.15,1.33,1.33,0,0,0-1.18,1,4.09,4.09,0,0,0,.55,2.86A8.46,8.46,0,0,1,50,19.66a3.11,3.11,0,0,0,.89,1.6,3.25,3.25,0,0,0,1.55.8,3.42,3.42,0,0,0,1.81-.29,6.37,6.37,0,0,0,2.16-1.34c.23-.2.48-.6.79-.66s.72.37,1,.59c.85.7,1.7,1.38,2.59,2a4.33,4.33,0,0,0,1.76.83c1.1.19,2-.6,2.84-1.21a27,27,0,0,0,2.92-2.53c.61-.62,1.2-1.27,1.77-1.93s1.21-1.22,1.28-2A1.31,1.31,0,0,0,71.24,14.77Z"/><path class="cls-1" d="M77.6,24.76a9.82,9.82,0,0,0-10.25.1,18.18,18.18,0,0,0-3.69,3.37l-.17.17c-.48-.48-.82-1.1-1.28-1.61-2.39-2.68-6.56-2.6-9.54-1.07-3.31,1.7-5.19,5.27-6.78,8.48a33.41,33.41,0,0,0-8.64-3.6,36.09,36.09,0,0,1-7.92-3A7.28,7.28,0,0,0,31.67,21a4.27,4.27,0,0,0-2.15-2.77l3.25-2.93,2.89,2.91,4-4L30.13,4.55l-4,4,3.23,3.26-5.58,5.12a8.54,8.54,0,0,0-.51-1,4,4,0,0,0-2.44-1.77c-1.94-.4-3.69.83-5,2.15C13.2,19,10.77,23.31,13,27c.07.12.16.22.23.33L9.16,30.84,5.92,27.59l-4,4,9.54,9.59,4-4-2.9-2.91,4.71-4a13.14,13.14,0,0,1,1.79.92h.09l.12.17c4.28,5,8.25,10.34,13.6,14.28,4.91,3.63,10.93,5.74,17,4.6a15.06,15.06,0,0,0,8.35-4.53c1.56-1.69-1-4.24-2.52-2.54-3.35,3.75-8.7,4.59-13.38,3.32C36.82,45,32.39,41.1,28.64,37c-2.37-2.61-4.55-5.39-6.84-8.07a1.55,1.55,0,0,0-.48-.36,2,2,0,0,0-.46-.42A14.9,14.9,0,0,0,18.58,27c-.39-.17-.78-.35-1.15-.55a3.81,3.81,0,0,1-.89-.64,2.57,2.57,0,0,1-.8-1.58v-.82a8.42,8.42,0,0,1,.31-1.12v-.09l.09-.2c.1-.2.2-.4.32-.6a7.48,7.48,0,0,1,.57-.89l.25-.34v-.05h0c.23-.27.45-.55.69-.81s.43-.46.66-.68l.41-.36.19-.14.37-.22.14-.06h.08a.37.37,0,0,1,.21,0l.11.12c.06.09.11.18.16.27s.19.38.28.58A4.13,4.13,0,0,0,23,20.89a1.38,1.38,0,0,0,.7.07h1.49c.6,0,1.21,0,1.81.06s1.08.24,1.21.72c.36,1.45-.8,2.66-1.74,3.59a10.13,10.13,0,0,0-1,1.17c-.27.35-.7.67-.55,1.17s.92,1.08,1.32,1.46a13.48,13.48,0,0,0,1.58,1.34,15.67,15.67,0,0,0,3.46,1.88,35.58,35.58,0,0,0,4,1.36c4.13,1.24,8.57,2.44,11.46,5.9a1.79,1.79,0,0,0,2.52,0,1.84,1.84,0,0,0,0-2.54,8.39,8.39,0,0,0-.56-.63A2.34,2.34,0,0,0,49,36c1.22-2.46,2.52-5.34,4.91-6.89a5.2,5.2,0,0,1,4.71-.67,11,11,0,0,1,3.06,2.61A2.64,2.64,0,0,0,65,31.3a29.38,29.38,0,0,0,3.48-2.82,6.29,6.29,0,0,1,5.87-1.29c5.09,1.59,7.91,7.36,8.09,12.38.21,5.62-2.56,10.68-6.69,14.31a26.78,26.78,0,0,1-7.92,4.61c-2.62,1-5.7,1.76-7.2,4.41-1.22,2.18-1.21,5.48.94,7.08a1.11,1.11,0,0,1-.34-.58c-.64-2.87,2.06-5,4.24-6.31,1.36-.8,3-1,4.4-1.57A29.69,29.69,0,0,0,78,56.69a22,22,0,0,0,8-16.31C86,34.26,83.11,27.78,77.6,24.76Zm-57.5-7Zm.11.12h0c.15.14.06.05,0,0Z"/><path class="cls-1" d="M19.91,17.78h0Z"/><polygon class="cls-1" points="6.71 42.23 0.99 36.49 3.32 34.15 9.03 39.89 6.71 42.23"/><polygon class="cls-1" points="38.56 11.91 32.84 6.16 35.17 3.83 40.88 9.57 38.56 11.91"/><path class="cls-1" d="M68.54,6.16c4.21,2.69,6.72,7.64,7.24,12.54.06.56.09,1.11.18,1.66,0,.17.12.38.29.35s.18-.14.21-.25a12.38,12.38,0,0,0,.15-3.84,24.2,24.2,0,0,0-.49-3.89,18.1,18.1,0,0,0-3.18-7.15,11.83,11.83,0,0,0-15-3.14A12.6,12.6,0,0,0,51.68,9.8c-.74,2.29,2.85,3.28,3.58,1,1.67-5.21,8.22-7.54,12.9-4.89Z"/><path class="cls-2" d="M70.25,13.77a1.44,1.44,0,0,0-.4-.45c-.72-.49-1.62-.07-2.32.22-.89.38-1.76.76-2.67,1.06A20.64,20.64,0,0,1,57,15.81a15.12,15.12,0,0,1-7.4-2.7.77.77,0,0,0-.55-.15,1.33,1.33,0,0,0-1.17,1,4,4,0,0,0,.55,2.86A8.46,8.46,0,0,1,49,18.66,3.1,3.1,0,0,0,51.52,21a3.4,3.4,0,0,0,1.81-.29,6.37,6.37,0,0,0,2.16-1.34c.23-.2.48-.6.79-.66s.72.37,1,.59c.85.7,1.7,1.38,2.59,2a4.27,4.27,0,0,0,1.76.83c1.1.19,2-.59,2.84-1.21a25.1,25.1,0,0,0,2.92-2.53c.61-.62,1.2-1.26,1.77-1.93s1.21-1.22,1.28-2A1.26,1.26,0,0,0,70.25,13.77Z"/><path class="cls-3" d="M76.61,23.77a9.75,9.75,0,0,0-10.25.1,18.23,18.23,0,0,0-3.7,3.37l-.16.17c-.48-.49-.82-1.1-1.28-1.61-2.39-2.68-6.56-2.6-9.54-1.07C48.37,26.42,46.49,30,44.9,33.2a33.55,33.55,0,0,0-8.64-3.6,35.59,35.59,0,0,1-7.92-3A7.25,7.25,0,0,0,30.68,20a4.25,4.25,0,0,0-2.15-2.76l3.25-2.93,2.89,2.91,4-4L29.14,3.55l-4,4,3.23,3.25-5.58,5.13a7.29,7.29,0,0,0-.52-1,3.92,3.92,0,0,0-2.43-1.76c-1.94-.4-3.69.83-5,2.15C12.2,18,9.78,22.32,12,26c.07.12.16.22.23.33L8.17,29.84,4.93,26.59l-4,4,9.54,9.58,4-4-2.9-2.91,4.71-4a13.14,13.14,0,0,1,1.79.92l.09.05.12.16c4.28,5,8.25,10.34,13.6,14.29,4.91,3.62,10.93,5.73,17,4.59a15.14,15.14,0,0,0,8.35-4.52c1.56-1.7-1-4.24-2.52-2.54C51.36,45.92,46,46.77,41.33,45.5,35.83,44,31.4,40.1,27.65,36c-2.37-2.61-4.56-5.39-6.84-8.07a1.38,1.38,0,0,0-.48-.35,1.67,1.67,0,0,0-.46-.42A15,15,0,0,0,17.59,26a12.12,12.12,0,0,1-1.15-.55,3.81,3.81,0,0,1-.89-.64,2.52,2.52,0,0,1-.8-1.57v-.82a9,9,0,0,1,.31-1.13v-.08l.09-.2c.1-.21.2-.41.32-.61a8.25,8.25,0,0,1,.57-.88l.25-.35h0c.23-.28.45-.55.69-.82s.43-.46.66-.68l.41-.36.19-.13c.12-.08.24-.16.37-.23l.14-.06h.08a.74.74,0,0,1,.21,0l.11.12c.06.09.11.18.16.27s.19.39.28.58a4.14,4.14,0,0,0,2.41,2,1.28,1.28,0,0,0,.7.07h1.49a10.1,10.1,0,0,1,1.75.1c.56.1,1.08.24,1.21.73.36,1.45-.81,2.66-1.74,3.58a12.35,12.35,0,0,0-1,1.17c-.27.35-.7.67-.55,1.17s.92,1.08,1.32,1.47a14.52,14.52,0,0,0,1.58,1.34,16.29,16.29,0,0,0,3.46,1.87c1.31.54,2.67,1,4,1.36,4.13,1.24,8.57,2.45,11.46,5.9a1.78,1.78,0,0,0,2.5,0l0,0a1.84,1.84,0,0,0,0-2.54c-.18-.21-.36-.42-.56-.63a1.69,1.69,0,0,0,.29-.41c1.22-2.46,2.52-5.34,4.91-6.88a5.23,5.23,0,0,1,4.71-.68,11.15,11.15,0,0,1,3.06,2.62,2.67,2.67,0,0,0,3.34.22,29.46,29.46,0,0,0,3.48-2.83,6.35,6.35,0,0,1,5.87-1.29c5.09,1.59,7.9,7.37,8.09,12.39.21,5.61-2.56,10.68-6.69,14.31a26.41,26.41,0,0,1-7.92,4.6c-2.62,1-5.7,1.77-7.2,4.42-1.22,2.17-1.21,5.47.94,7.07a1.08,1.08,0,0,1-.34-.57c-.64-2.87,2.06-5.05,4.23-6.32,1.37-.79,3-1,4.41-1.57A29.62,29.62,0,0,0,77,55.73a21.93,21.93,0,0,0,8-16.34C85,33.26,82.12,26.78,76.61,23.77Zm-57.51-7Zm.11.12h0c.16.14.07.06,0,0Z"/><path class="cls-4" d="M18.92,16.78h0Z"/><polygon class="cls-5" points="5.72 41.24 0 35.49 2.33 33.15 8.04 38.9 5.72 41.24"/><polygon class="cls-6" points="37.57 10.92 31.85 5.17 34.18 2.83 39.89 8.58 37.57 10.92"/><path class="cls-3" d="M67.54,5.16c4.22,2.69,6.73,7.64,7.25,12.55.06.55.09,1.11.18,1.65,0,.17.12.38.29.36s.18-.15.21-.26a12.3,12.3,0,0,0,.15-3.83,23.25,23.25,0,0,0-.5-3.9A18.11,18.11,0,0,0,72,4.58,11.83,11.83,0,0,0,57,1.44,12.63,12.63,0,0,0,50.74,8.8c-.74,2.3,2.85,3.28,3.58,1C56,4.58,62.54,2.25,67.21,4.91Z"/><path class="cls-7" d="M96,63l5-56h12.2l-2,22h4.34l2-22h12.13l-5,56H112.55l2-22h-4.34l-2,22Z"/><path class="cls-7" d="M129.58,63l5-56h22.94l-.94,10.4H145.87l-1,11.6H152l-1.07,12H143.8l-1,11.68h10.73l-1,10.32Z"/><path class="cls-7" d="M155.79,63l5-56H173L168.9,52.7h10.74L178.73,63Z"/><path class="cls-7" d="M183.64,63l5-56h12.7a14.8,14.8,0,0,1,7.84,2.08,14.06,14.06,0,0,1,5.27,5.6,13.83,13.83,0,0,1,1.47,7.84l-.86,9.6A15.93,15.93,0,0,1,212.21,40a18.46,18.46,0,0,1-6.28,5.6,16.81,16.81,0,0,1-8.21,2.08h-.49L195.85,63Zm14.52-25.76h.24a7.93,7.93,0,0,0,2-.24,2.61,2.61,0,0,0,1.6-1.36,10.17,10.17,0,0,0,.87-3.76l.8-9a9.56,9.56,0,0,0-.18-3.84,2,2,0,0,0-1.31-1.36,7.14,7.14,0,0,0-2-.24H200Z"/><path class="cls-7" d="M220.59,63l2.23-24.88-5.6-29.92.11-1.2h12.21l-.23,20.8h1.07L233.88,7H246l-.11,1.2L235,38.14,232.79,63Z"/></g></g></g></g></svg>