<svg xmlns="http://www.w3.org/2000/svg" xmlns:xlink="http://www.w3.org/1999/xlink" viewBox="0 0 246 70"><defs><style>.cls-1{fill:#33b062;}.cls-2{fill:url(#무제_그라디언트_20);}.cls-3{fill:#231815;}.cls-4{fill:url(#무제_그라디언트_20-2);}.cls-5{fill:url(#무제_그라디언트_20-3);}.cls-6{fill:#181818;}</style><linearGradient id="무제_그라디언트_20" x1="37.21" y1="8.74" x2="69.24" y2="20.24" gradientUnits="userSpaceOnUse"><stop offset="0" stop-color="#8ec321"/><stop offset="1" stop-color="#7ecbd8"/></linearGradient><linearGradient id="무제_그라디언트_20-2" x1="0" y1="37.17" x2="8.04" y2="37.17" xlink:href="#무제_그라디언트_20"/><linearGradient id="무제_그라디언트_20-3" x1="31.85" y1="6.85" x2="39.89" y2="6.85" xlink:href="#무제_그라디언트_20"/></defs><g id="레이어_2" data-name="레이어 2"><g id="레이어_1-2" data-name="레이어 1"><path class="cls-1" d="M71.24,14.75a1.44,1.44,0,0,0-.4-.45c-.72-.49-1.62-.08-2.32.22-.88.37-1.76.75-2.67,1.06A20.66,20.66,0,0,1,58,16.79a15.16,15.16,0,0,1-7.4-2.7.8.8,0,0,0-.54-.15,1.34,1.34,0,0,0-1.18,1,4.08,4.08,0,0,0,.55,2.86,8.46,8.46,0,0,1,.61,1.84,3.15,3.15,0,0,0,.89,1.6,3.25,3.25,0,0,0,1.55.8,3.43,3.43,0,0,0,1.81-.29,6.37,6.37,0,0,0,2.16-1.34c.23-.2.48-.6.79-.66s.72.37,1,.59c.85.7,1.7,1.38,2.59,2a4.33,4.33,0,0,0,1.76.83c1.1.19,2-.6,2.84-1.21a26.1,26.1,0,0,0,2.92-2.53c.61-.62,1.2-1.27,1.77-1.93s1.21-1.22,1.28-2A1.29,1.29,0,0,0,71.24,14.75Z"/><path class="cls-1" d="M22.79,23.09h0Z"/><path class="cls-1" d="M77.6,24.74a9.82,9.82,0,0,0-10.25.1,18.18,18.18,0,0,0-3.69,3.37s-.1.1-.17.17c-.48-.48-.82-1.1-1.28-1.61-2.39-2.68-6.56-2.6-9.54-1.07-3.31,1.7-5.19,5.27-6.78,8.48a33.26,33.26,0,0,0-8.64-3.6,36.1,36.1,0,0,1-7.92-3,7.27,7.27,0,0,0,2.34-6.62,4.28,4.28,0,0,0-2.15-2.77l3.25-2.93,2.89,2.91,4-4L30.13,4.53l-4,4,3.23,3.26-5.58,5.12a8,8,0,0,0-.51-1,4,4,0,0,0-2.44-1.77c-1.94-.4-3.69.83-5,2.15-2.63,2.71-5.06,7-2.81,10.72.07.12.16.22.23.33L9.16,30.82,5.92,27.57l-4,4,9.54,9.59,4-4-2.9-2.91,4.71-4a12.61,12.61,0,0,1,1.79.92l.09,0,.12.17c4.28,5,8.25,10.34,13.6,14.28,4.91,3.63,10.93,5.74,17,4.6a15.12,15.12,0,0,0,8.35-4.53c1.56-1.69-1-4.24-2.52-2.54C52.35,46.9,47,47.74,42.32,46.47c-5.5-1.49-9.93-5.39-13.68-9.53-2.37-2.61-4.55-5.39-6.84-8.07a1.51,1.51,0,0,0-.48-.36,2.06,2.06,0,0,0-.46-.42A15.11,15.11,0,0,0,18.58,27c-.39-.17-.78-.35-1.15-.55a3.79,3.79,0,0,1-.89-.64,2.56,2.56,0,0,1-.8-1.58s0-.33,0-.41,0-.5,0-.41a7.9,7.9,0,0,1,.31-1.12c0-.05,0-.07,0-.09l.09-.2c.1-.2.2-.4.32-.6a9.53,9.53,0,0,1,.57-.89l.25-.34,0-.05,0,0c.23-.27.45-.55.69-.81s.43-.46.66-.68l.41-.36.19-.14.37-.22.14-.06h-.06l.08,0h.06a.42.42,0,0,1,.21,0l.11.12c.06.09.11.18.16.27s.19.38.28.58A4.14,4.14,0,0,0,23,20.87a1.4,1.4,0,0,0,.7.07c.23,0,.52,0,.76,0s.48,0,.73,0A16.63,16.63,0,0,1,27,21c.46.05,1.08.24,1.21.72.36,1.45-.8,2.66-1.74,3.59a10.59,10.59,0,0,0-1,1.17c-.27.35-.7.67-.55,1.17s.92,1.08,1.32,1.46a13.33,13.33,0,0,0,1.58,1.34,15.9,15.9,0,0,0,3.46,1.88c1.31.53,2.67,1,4,1.36,4.13,1.24,8.57,2.44,11.46,5.9a1.79,1.79,0,0,0,2.52,0,1.83,1.83,0,0,0,0-2.54,8.39,8.39,0,0,0-.56-.63,2.14,2.14,0,0,0,.29-.41c1.22-2.46,2.52-5.34,4.91-6.89a5.22,5.22,0,0,1,4.71-.67,11.06,11.06,0,0,1,3.06,2.61,2.64,2.64,0,0,0,3.34.22,29.19,29.19,0,0,0,3.48-2.82,6.29,6.29,0,0,1,5.87-1.29c5.09,1.59,7.91,7.36,8.09,12.38.21,5.62-2.56,10.68-6.69,14.31a26.78,26.78,0,0,1-7.92,4.61c-2.62,1-5.7,1.76-7.2,4.41-1.22,2.18-1.21,5.48.94,7.08a1.07,1.07,0,0,1-.34-.58c-.64-2.87,2.06-5,4.24-6.31,1.36-.8,3-1,4.4-1.57a29.59,29.59,0,0,0,8.1-4.83A22,22,0,0,0,86,40.36C86,34.24,83.11,27.76,77.6,24.74Zm-57.6-7s-.05,0,0,0Zm0,0Zm.1,0,0,0h0C20.18,17.75,20.17,17.75,20.13,17.74Zm.11.12v0C20.36,18,20.27,17.91,20.24,17.86Z"/><path class="cls-1" d="M19.91,17.76h-.08Z"/><polygon class="cls-1" points="6.71 42.21 0.99 36.47 3.32 34.13 9.03 39.87 6.71 42.21"/><polygon class="cls-1" points="38.56 11.89 32.84 6.14 35.17 3.81 40.88 9.55 38.56 11.89"/><path class="cls-1" d="M68.54,6.14c4.21,2.69,6.72,7.64,7.24,12.54.06.56.09,1.11.18,1.66,0,.17.12.38.29.35s.18-.14.21-.25a12.65,12.65,0,0,0,.15-3.84,24.2,24.2,0,0,0-.49-3.89,18.18,18.18,0,0,0-3.18-7.15,11.83,11.83,0,0,0-15-3.14,12.6,12.6,0,0,0-6.26,7.36c-.74,2.29,2.85,3.28,3.58,1,1.67-5.21,8.22-7.54,12.9-4.89Z"/><path class="cls-2" d="M70.25,13.75a1.44,1.44,0,0,0-.4-.45c-.72-.49-1.62-.07-2.32.22-.89.38-1.76.76-2.67,1.06A20.47,20.47,0,0,1,57,15.79a15.16,15.16,0,0,1-7.4-2.7.81.81,0,0,0-.55-.15,1.34,1.34,0,0,0-1.17,1,4,4,0,0,0,.55,2.86,8.46,8.46,0,0,1,.61,1.84A3.09,3.09,0,0,0,51.52,21a3.34,3.34,0,0,0,1.81-.29,6.37,6.37,0,0,0,2.16-1.34c.23-.2.48-.6.79-.66s.72.37,1,.59c.85.7,1.7,1.38,2.59,2a4.2,4.2,0,0,0,1.76.83c1.1.19,2-.59,2.84-1.21a25.1,25.1,0,0,0,2.92-2.53c.61-.62,1.2-1.26,1.77-1.93s1.21-1.22,1.28-2A1.31,1.31,0,0,0,70.25,13.75Z"/><path class="cls-3" d="M21.8,22.09h0Z"/><path class="cls-3" d="M76.61,23.75a9.77,9.77,0,0,0-10.25.1,18.21,18.21,0,0,0-3.7,3.37l-.16.17c-.48-.49-.82-1.1-1.28-1.61-2.39-2.68-6.56-2.6-9.54-1.07C48.37,26.4,46.49,30,44.9,33.18a33.61,33.61,0,0,0-8.64-3.6,35.61,35.61,0,0,1-7.92-3,7.25,7.25,0,0,0,2.34-6.62,4.26,4.26,0,0,0-2.15-2.76l3.25-2.93,2.89,2.91,4-4L29.14,3.53l-4,4,3.23,3.25-5.58,5.13a6.94,6.94,0,0,0-.52-1,3.94,3.94,0,0,0-2.43-1.76c-1.94-.4-3.69.83-5,2.15-2.64,2.71-5.06,7-2.81,10.71.07.12.16.22.23.33L8.17,29.82,4.93,26.57l-4,4,9.54,9.58,4-4-2.9-2.91,4.71-4a12.61,12.61,0,0,1,1.79.92l.09.05.12.16c4.28,5,8.25,10.34,13.6,14.29,4.91,3.62,10.93,5.73,17,4.59a15.14,15.14,0,0,0,8.35-4.52c1.56-1.7-1-4.24-2.52-2.54C51.36,45.9,46,46.75,41.33,45.48c-5.5-1.5-9.93-5.4-13.68-9.54-2.37-2.61-4.56-5.39-6.84-8.07a1.35,1.35,0,0,0-.48-.35,1.84,1.84,0,0,0-.46-.42A15.16,15.16,0,0,0,17.59,26a12.12,12.12,0,0,1-1.15-.55,3.79,3.79,0,0,1-.89-.64,2.52,2.52,0,0,1-.8-1.57s0-.34,0-.42,0-.49,0-.4a8.36,8.36,0,0,1,.31-1.13s0-.07,0-.08l.09-.2c.1-.21.2-.41.32-.61a9.4,9.4,0,0,1,.57-.88l.25-.35,0,0,0,0c.23-.28.45-.55.69-.82s.43-.46.66-.68l.41-.36.19-.13c.12-.08.24-.16.37-.23l.14-.06-.06,0,.07,0,.07,0a.59.59,0,0,1,.21,0l.11.12c.06.09.11.18.16.27s.19.39.28.58A4.14,4.14,0,0,0,22,19.87a1.3,1.3,0,0,0,.7.07c.23,0,.52,0,.76,0h.73c.59,0,1.19,0,1.75.1s1.08.24,1.21.73c.36,1.45-.81,2.66-1.74,3.58a12.79,12.79,0,0,0-1,1.17c-.27.35-.7.67-.55,1.17s.92,1.08,1.32,1.47a14.52,14.52,0,0,0,1.58,1.34,16.29,16.29,0,0,0,3.46,1.87c1.31.54,2.67.95,4,1.36,4.13,1.24,8.57,2.45,11.46,5.9a1.77,1.77,0,0,0,2.52,0,1.83,1.83,0,0,0,0-2.54c-.18-.21-.36-.42-.56-.63a1.65,1.65,0,0,0,.29-.41c1.22-2.46,2.52-5.34,4.91-6.88a5.25,5.25,0,0,1,4.71-.68,11.1,11.1,0,0,1,3.06,2.62,2.66,2.66,0,0,0,3.34.22,29.27,29.27,0,0,0,3.48-2.83,6.34,6.34,0,0,1,5.87-1.29c5.09,1.59,7.9,7.37,8.09,12.39.21,5.61-2.56,10.68-6.69,14.31a26.54,26.54,0,0,1-7.92,4.6c-2.62,1-5.7,1.77-7.2,4.42-1.22,2.17-1.21,5.47.94,7.07a1,1,0,0,1-.34-.57c-.64-2.87,2.06-5.05,4.23-6.32,1.37-.79,3-1,4.41-1.57A29.34,29.34,0,0,0,77,55.71,21.94,21.94,0,0,0,85,39.37C85,33.24,82.12,26.76,76.61,23.75ZM19,16.69s-.05,0,0,0Zm0,0Zm.1.05,0,0h0C19.19,16.76,19.18,16.76,19.14,16.75Zm.11.12h0C19.37,17,19.28,16.92,19.25,16.87Z"/><path class="cls-3" d="M18.92,16.76l-.07,0h0Z"/><polygon class="cls-4" points="5.72 41.22 0 35.47 2.33 33.13 8.04 38.88 5.72 41.22"/><polygon class="cls-5" points="37.57 10.9 31.85 5.15 34.18 2.81 39.89 8.56 37.57 10.9"/><path class="cls-3" d="M67.54,5.14c4.22,2.69,6.73,7.64,7.25,12.55.06.55.09,1.11.18,1.65,0,.17.12.38.29.36s.18-.15.21-.26a12.59,12.59,0,0,0,.15-3.83,23.25,23.25,0,0,0-.5-3.9A18.08,18.08,0,0,0,72,4.56a11.83,11.83,0,0,0-15-3.14,12.63,12.63,0,0,0-6.26,7.36c-.74,2.3,2.85,3.28,3.58,1,1.67-5.22,8.22-7.55,12.89-4.89A4.23,4.23,0,0,1,67.54,5.14Z"/><path class="cls-6" d="M96,63l5-56h12.2l-2,22h4.34l2-22h12.13l-5,56H112.55l2-22h-4.34l-2,22Z"/><path class="cls-6" d="M129.58,63l5-56h22.94l-.94,10.4H145.87l-1,11.6H152l-1.07,12h-7.13l-1,11.68h10.73L152.52,63Z"/><path class="cls-6" d="M155.79,63l5-56H173l-4.1,45.68h10.74L178.73,63Z"/><path class="cls-6" d="M183.64,63l5-56h12.7a14.75,14.75,0,0,1,7.84,2.08,14.12,14.12,0,0,1,5.27,5.6,13.78,13.78,0,0,1,1.47,7.84l-.86,9.6A15.9,15.9,0,0,1,212.21,40a18.46,18.46,0,0,1-6.28,5.6,16.75,16.75,0,0,1-8.21,2.08h-.49L195.85,63Zm14.52-25.76h.24a7.86,7.86,0,0,0,2-.24A2.6,2.6,0,0,0,202,35.64a10.08,10.08,0,0,0,.87-3.76l.8-9a9.57,9.57,0,0,0-.18-3.84,2,2,0,0,0-1.31-1.36,7.44,7.44,0,0,0-1.95-.24h-.24Z"/><path class="cls-6" d="M220.59,63l2.23-24.88L217.22,8.2l.11-1.2h12.21l-.23,20.8h1.07L233.88,7H246l-.11,1.2L235,38.12,232.79,63Z"/></g></g></svg>