<svg xmlns="http://www.w3.org/2000/svg" viewBox="0 0 49 49"><defs><style>.cls-1{fill:none;stroke:#fff;stroke-miterlimit:10;}.cls-2{fill:#fff;}</style></defs><g id="레이어_2" data-name="레이어 2"><g id="Icons"><circle class="cls-1" cx="24.5" cy="24.5" r="24"/><path class="cls-2" d="M13.5,20.12h6.56v1.32H17.52v7.44H16V21.44H13.5Z"/><path class="cls-2" d="M24.42,29c-2.16,0-3.77-1.68-3.77-4.5S22.26,20,24.42,20s3.78,1.67,3.78,4.5S26.58,29,24.42,29Zm0-1.42c1.35,0,2.29-1.08,2.29-3.08s-.94-3.08-2.29-3.08-2.29,1.08-2.28,3.08S23.08,27.58,24.42,27.58Z"/><path class="cls-2" d="M29.51,20.12H32.6A2.7,2.7,0,0,1,35.5,23a2.71,2.71,0,0,1-2.92,2.9H31v3H29.51Zm2.87,4.5A1.46,1.46,0,0,0,34,23a1.45,1.45,0,0,0-1.61-1.58H31v3.18Z"/></g></g></svg>