<svg xmlns="http://www.w3.org/2000/svg" viewBox="0 0 36.79 35.94"><defs><style>.cls-1{opacity:0.3;}.cls-2{fill:#fff;}</style></defs><g id="Layer_2" data-name="Layer 2"><g id="Layer_1-2" data-name="Layer 1"><g class="cls-1"><path d="M18.9,18.93C9.7,18.93,2.11,25.44,1,33.84a1.88,1.88,0,0,0,1.92,2.1h.14A1.92,1.92,0,0,0,5,34.29C5.89,27.75,11.8,22.7,19,22.7s13.08,5.05,14,11.59a1.94,1.94,0,0,0,3.86-.45c-1.1-8.4-8.69-14.91-17.88-14.91Z"/><path d="M18.9,4a5,5,0,1,1-5,5,5,5,0,0,1,5-5m0-4a9,9,0,1,0,9,9,9,9,0,0,0-9-9Z"/></g><path class="cls-2" d="M17.9,18.93C8.7,18.93,1.11,25.44,0,33.84a1.88,1.88,0,0,0,1.92,2.1h.14A1.92,1.92,0,0,0,4,34.29C4.89,27.75,10.8,22.7,18,22.7s13.08,5.05,14,11.59a1.94,1.94,0,0,0,3.86-.45c-1.1-8.4-8.69-14.91-17.88-14.91Z"/><path class="cls-2" d="M17.9,4a5,5,0,1,1-5,5,5,5,0,0,1,5-5m0-4a9,9,0,1,0,9,9,9,9,0,0,0-9-9Z"/></g></g></svg>