<svg xmlns="http://www.w3.org/2000/svg" viewBox="0 0 16 30.56"><defs><style>.cls-1{opacity:0.3;}.cls-2{fill:#fff;}</style></defs><g id="Layer_2" data-name="Layer 2"><g id="Layer_1-2" data-name="Layer 1"><g class="cls-1"><path d="M1.57,30.56a1.49,1.49,0,0,0,1.12-.51L14.62,16.59a1.49,1.49,0,0,0,0-2L2.62,1.06a1.5,1.5,0,1,0-2.24,2L11.5,15.6.45,28.06a1.51,1.51,0,0,0,1.12,2.5Z"/></g><path class="cls-2" d="M2.57,30a1.46,1.46,0,0,0,1.12-.51L15.62,16a1.49,1.49,0,0,0,0-2L3.62.5A1.5,1.5,0,0,0,1.51.38a1.48,1.48,0,0,0-.13,2.11L12.5,15,1.45,27.5a1.5,1.5,0,0,0,.13,2.12A1.45,1.45,0,0,0,2.57,30Z"/></g></g></svg>