<svg xmlns="http://www.w3.org/2000/svg" viewBox="0 0 37 35.97"><defs><style>.cls-1{opacity:0.3;}.cls-2{fill:#fff;}</style></defs><g id="Layer_2" data-name="Layer 2"><g id="Layer_1-2" data-name="Layer 1"><path class="cls-1" d="M37,31.74,33.73,11.31A3.76,3.76,0,0,0,30,8.19H25.52V6.77A6.69,6.69,0,0,0,19.83.05a6.53,6.53,0,0,0-7.35,6.47V8.19H8a3.76,3.76,0,0,0-3.75,3.12L1,31.74A3.71,3.71,0,0,0,4.79,36H33.21A3.71,3.71,0,0,0,37,31.74ZM16.48,6.52A2.52,2.52,0,0,1,19.23,4,2.64,2.64,0,0,1,21.52,6.7V8.19h-5Zm15.86,25.4H5.66a.36.36,0,0,1-.36-.4l3-19a.37.37,0,0,1,.36-.3h3.82v4.59a1.82,1.82,0,0,0,1.82,1.81h.25a1.93,1.93,0,0,0,1.93-1.94V12.24h5v4.49a2,2,0,0,0,2.1,1.91,1.9,1.9,0,0,0,1.9-1.9v-4.5h3.82a.37.37,0,0,1,.36.3l3,19A.36.36,0,0,1,32.34,31.92Z"/><path class="cls-2" d="M36,31.74,32.73,11.31A3.76,3.76,0,0,0,29,8.19H24.52V6.77A6.69,6.69,0,0,0,18.83.05a6.53,6.53,0,0,0-7.35,6.47V8.19H7a3.76,3.76,0,0,0-3.75,3.12L0,31.74A3.71,3.71,0,0,0,3.79,36H32.21A3.71,3.71,0,0,0,36,31.74ZM15.48,6.52A2.52,2.52,0,0,1,18.23,4,2.64,2.64,0,0,1,20.52,6.7V8.19h-5Zm15.86,25.4H4.66a.36.36,0,0,1-.36-.4l3-19a.37.37,0,0,1,.36-.3h3.82v4.59a1.82,1.82,0,0,0,1.82,1.81h.25a1.93,1.93,0,0,0,1.93-1.94V12.24h5v4.49a2,2,0,0,0,2.1,1.91,1.9,1.9,0,0,0,1.9-1.9v-4.5h3.82a.37.37,0,0,1,.36.3l3,19A.36.36,0,0,1,31.34,31.92Z"/></g></g></svg>