<svg xmlns="http://www.w3.org/2000/svg" viewBox="0 0 16 30.56"><defs><style>.cls-1{opacity:0.3;}.cls-2{fill:#fff;}</style></defs><g id="Layer_2" data-name="Layer 2"><g id="Layer_1-2" data-name="Layer 1"><g class="cls-1"><path d="M14.43,30.56a1.49,1.49,0,0,1-1.12-.51L1.38,16.59a1.49,1.49,0,0,1,0-2l12-13.54a1.5,1.5,0,1,1,2.24,2L4.5,15.6,15.55,28.06a1.51,1.51,0,0,1-1.12,2.5Z"/></g><path class="cls-2" d="M13.43,30a1.46,1.46,0,0,1-1.12-.51L.38,16a1.49,1.49,0,0,1,0-2L12.38.5A1.51,1.51,0,0,1,14.5.38a1.49,1.49,0,0,1,.12,2.11L3.5,15,14.55,27.5a1.5,1.5,0,0,1-.13,2.12A1.45,1.45,0,0,1,13.43,30Z"/></g></g></svg>