<svg id="레이어_1" data-name="레이어 1" xmlns="http://www.w3.org/2000/svg" viewBox="0 0 299.36 131.93"><path d="M222.57,37.08A31.31,31.31,0,0,0,219,38.77a40.38,40.38,0,0,1-4.16,1.83c-1.17.41-3.06,1.11-4.29.6a.94.94,0,0,1-.45-.36,1.15,1.15,0,0,1,0-.82,9.51,9.51,0,0,1,1.6-3,22.54,22.54,0,0,1,4.08-4.58,12.45,12.45,0,0,1,2.57-1.67,17.77,17.77,0,0,1,3-.87c.61-.17,1.25-.55,1.23-1.28a2.78,2.78,0,0,0-.22-.88l-.69-1.89a2.64,2.64,0,0,0-.41-.8,1.24,1.24,0,0,0-1.34-.24c-4.07,1-7.34,3.65-9.89,6.86-2,2.57-3.54,5.63-3,9,.29,1.93,1.29,4.28,3.22,5.09,1.7.72,3.48,0,5.07-.63a13.67,13.67,0,0,0,4.39-3A16.14,16.14,0,0,0,221.3,40a8,8,0,0,0,.68-1.12,5.78,5.78,0,0,0,.31-.72,3,3,0,0,1,.19-.69A.39.39,0,0,0,222.57,37.08Z"/><path d="M240.69,25.08a4.08,4.08,0,0,0-.16-1.33c-.18-.6-.63-1.42-1.37-1.37-.59,0-1.1.83-1.45,1.24-.64.75-1.26,1.53-1.91,2.28C234.9,27,234,28,233,29a17.71,17.71,0,0,1-1.36,1.38c-.08.07-.93.81-.93.43,0-1.82.72-3.62.62-5.47a6.46,6.46,0,0,0-2.53-4.57c-.5-.4-1.29-.82-1.73-.13-.19.3,0,.85.1,1.15a12.57,12.57,0,0,1-.33,5,130.08,130.08,0,0,0-3,14.85c-.28,2.51-.61,5,.71,7.27a2.91,2.91,0,0,0,.87,1,1.45,1.45,0,0,0,1.79-.2c1-.91.8-2.53.88-3.74,0-.94.12-1.9.18-2.85a7.6,7.6,0,0,1,.32-2.65,17.42,17.42,0,0,1,1.25,2.65,4.57,4.57,0,0,0,4.41,2.5,1.78,1.78,0,0,0,1.09-.38c.7-.7-.94-1-1.34-1.28a4.34,4.34,0,0,1-1.91-2.81,15.42,15.42,0,0,1-.37-2,3.66,3.66,0,0,1,.1-1.86,5.65,5.65,0,0,1,1.46-1.7c.62-.6,1.23-1.22,1.83-1.85a43.53,43.53,0,0,0,3.09-3.56C239.35,28.71,240.62,27,240.69,25.08Z"/><path d="M79.62,9.77a10.39,10.39,0,0,0-.91,2.89c-.28.92-.62,1.83-.83,2.76-.85,3.7-1.39,7.46-2.07,11.2-.58,3.26-1.09,6.53-1.6,9.81-.22,1.42-.5,2.85-.61,4.29a9,9,0,0,1-.22,1.71,7.19,7.19,0,0,1-.57,1c-1-3.5-1-7.37-1.45-11s-1.08-6.91-1.78-10.33c-.5-2.42-1.52-5-3.94-6.08-1.86-.82-1.75.94-1.27,2.13.74,1.8.15,3.91-.37,5.69C63.4,26,62.93,28,62.34,30.09c-1.55,5.47-3.19,11.29-3.57,17-.19,2.75-.45,7,2.56,8.42,1.64.78,2.09-1.11,2-2.28-.23-2,.6-3.82.9-5.79s.73-3.77,1.15-5.64a41.6,41.6,0,0,0,1.22-5.34,16.81,16.81,0,0,0,.59,3.9A20.3,20.3,0,0,0,70,48.75c1.43,2.08,4.43,4,6.52,1.65,1.35-1.53,2-3.86,2.43-5.81a119.38,119.38,0,0,0,2-14.74,71.26,71.26,0,0,0,.21-15C81,13.5,80.67,10.77,79.62,9.77Z"/><path d="M129.28,30.56c.19-3.35-1.53-8.53-5.35-9.15a8.61,8.61,0,0,0-7.27,2.6,3.23,3.23,0,0,1-1.54.95A1.76,1.76,0,0,0,114,26.2a3,3,0,0,0,.39,1.84,5.28,5.28,0,0,1,.47,2,21,21,0,0,1-.63,3.68l-.3,1.61c-.2,1-.39,2-.61,3.06a30.28,30.28,0,0,0-.58,3.78,9.74,9.74,0,0,0,.13,3.69,1.8,1.8,0,0,0,1.24,1.23,2.47,2.47,0,0,0,.84.21c1.09.05,1.37-1.26,2.29-1.59a16.36,16.36,0,0,0,2.4-1,20.85,20.85,0,0,0,5.48-4.07,16.14,16.14,0,0,0,3.33-5.81A16.87,16.87,0,0,0,129.28,30.56ZM124.8,32.1l-.39.63a26.81,26.81,0,0,1-3.11,3.94c-.7.73-1.41,1.46-2.15,2.16-.37.35-.75.71-1.14,1.05-.13.11-.71.61-.7.13a31.9,31.9,0,0,1,.46-3.36,32.7,32.7,0,0,0,.47-6,3.75,3.75,0,0,1,.37-2.07c.56-.95,1.66-1.21,2.6-1.62a9.08,9.08,0,0,1,3-1.12,2,2,0,0,1,2.28,2.5A13.8,13.8,0,0,1,124.8,32.1Z"/><path d="M162.53,24.42a2.49,2.49,0,0,0-2-2,5.89,5.89,0,0,0-4.87.49c-3.09,1.88-5.92,5.61-6.18,9.29a7.35,7.35,0,0,0,3,6.38c.7.52,2,.84,2.26,1.77.4,1.34-1.47,2.78-2.21,3.67s-1.45,1.76-2.09,2.7a15,15,0,0,0-.85,1.38c-.05.09-.65,1.57-.41,1.56a7.85,7.85,0,0,0,1.95-.65,15.26,15.26,0,0,0,1.48-.52,14.81,14.81,0,0,0,3.29-2.18c1.24-1.07,2.92-2.65,3.19-4.33a3.55,3.55,0,0,0-1.5-3.23c-1-.86-2.5-1.19-3.33-2.26-1.38-1.78-.44-4.65.3-6.49s2.23-4.57,4.28-5.43a1,1,0,0,1,.56-.1c1,.18.73,1.86.52,2.52a14.92,14.92,0,0,1-1.37,2.74,12.46,12.46,0,0,1-2.39,3.36c-.51.46-.52.8.25.76,1.14,0,2-1.11,2.6-2a21.38,21.38,0,0,0,3.46-6.29A2.81,2.81,0,0,0,162.53,24.42Zm-2.47.78h0v0Zm.07.29s0,0,0,0,0-.05,0-.07S160.12,25.47,160.13,25.49Z"/><path d="M205.21,25.43l-.35-.18a10.42,10.42,0,0,0-1.6-.63,12.8,12.8,0,0,0-.28,1.77c-.5,2.84-1.16,5.66-1.68,8.5-.32,1.76-.7,3.52-.89,5.3a11.14,11.14,0,0,0,.38,5.29,2.57,2.57,0,0,0,2,1.69,1,1,0,0,0,.68-.18c.53-.44.33-1.35.37-2a51.26,51.26,0,0,1,1.27-6.58c.76-3.76,1.84-7.66,1.18-11.53A1.81,1.81,0,0,0,205.21,25.43Zm-1,12.57a2,2,0,0,0,0-.26l0-.07Z"/><path d="M209.09,14.72a2.09,2.09,0,0,0-.68-1.13c-.15-.13-1.74-1-1.59-1.22a5.53,5.53,0,0,0-.5,1.45c-.18.55-.34,1.1-.5,1.65a32.75,32.75,0,0,0-.85,3.62,4,4,0,0,0,.32,2.81,1,1,0,0,0,1.14.62c1.36-.35,2-2.27,2.39-3.45a9.77,9.77,0,0,0,.41-3A6,6,0,0,0,209.09,14.72Z"/><path d="M204,17.9a6,6,0,0,0-1.71-3.37,8.42,8.42,0,0,0-2.93-1.92,14.17,14.17,0,0,0-7-.73,23.18,23.18,0,0,0-5,1.29,30.93,30.93,0,0,0-4.92,2.37,28.51,28.51,0,0,0-7,5.77c-.37.41-.71.85-1,1.29-.55.71-1.14,1.38-1.64,2.12s-1,1.37-.8,2.13a1.85,1.85,0,0,0,.57.89c.37.35,1.05,1.17,1.64.94a1.1,1.1,0,0,0,.45-.56,4.18,4.18,0,0,1,1.29-1.42,9.22,9.22,0,0,0,1.36-1.5,10.92,10.92,0,0,1,2.69-2.52l.28-.16c-1,5.2-3.21,10.17-4.53,15.29-.45,1.76-.77,3.55-1.12,5.34a38.45,38.45,0,0,0-1,5.72c0,.86,0,2.14.73,2.71a2.5,2.5,0,0,0,.82.4,3.06,3.06,0,0,0,1.31.12,1.53,1.53,0,0,0,.7-.34,4.09,4.09,0,0,0,1-1.69c1.31-3.3,1.54-6.78,2.37-10.19a2.23,2.23,0,0,1,1.8-1.88,25.65,25.65,0,0,0,3.38-.7c.53-.2,1-.51,1.51-.74s1.27-.54,1.89-.85a36.62,36.62,0,0,0,5.29-3.31A34.91,34.91,0,0,0,199.17,28a30.17,30.17,0,0,0,2.16-2.63,19.77,19.77,0,0,0,1.65-3A8.74,8.74,0,0,0,204,18C204,18,204,17.94,204,17.9Zm-22.4,18.61,0,0h.06Zm11.76-21.83,0,0h-.06Zm3,9.67c-.8.77-1.64,1.48-2.5,2.17l0,0c-1.68,1.18-3.35,2.35-5.05,3.49-2,1.22-4.07,2.34-6.15,3.46,1.61-4.17,4-9.8,1.32-13.89a41.38,41.38,0,0,1,10.09-4c1.61-.44,6.8-.88,6.94,1.61S198,22.82,196.39,24.35Z"/><path d="M151.27,13.76a.27.27,0,0,1,0-.12.7.7,0,0,1,.07-.31,3.61,3.61,0,0,0,.37-1.25,3.18,3.18,0,0,0-1.55-2.73.7.7,0,0,0-.62-.12.64.64,0,0,0-.3.44,6.5,6.5,0,0,0,.1,1.53,4.25,4.25,0,0,1-.26,1.05,11.36,11.36,0,0,1-.44,1.15c-.33.76-.73,1.48-1.13,2.2-.26.49-.53,1-.82,1.44-.15.24-.3.47-.47.7s-.37.36-.28.54,1.2.39,1.52.35a5,5,0,0,0,2.75-1.3,7,7,0,0,0,1.28-2.53.79.79,0,0,0,.06-.62C151.46,14,151.33,13.91,151.27,13.76Z"/><path d="M145.7,27.14a1.49,1.49,0,0,0-.6-1.12,1.46,1.46,0,0,0-1.49-.14,1.65,1.65,0,0,0-.9-1.14,1.51,1.51,0,0,0-1.43,0,2.71,2.71,0,0,0-.59,1.35c-.54,2-2,3.41-3.3,4.87l-2.27,2.52A8.91,8.91,0,0,1,133,35.64c-.26.13,0-1.33,0-1.36.15-.61.32-1.22.49-1.83.57-2,1.75-4.34,1.16-6.5a2.5,2.5,0,0,0-1.41-1.76c-.83-.26-1,.86-1.23,1.4-1.57,3.4-3,7.31-1.82,11.05.44,1.41,1.15,3.17,2.71,3.64,2,.6,4.16-1,5.61-2.15a1.56,1.56,0,0,0,.47-.52,10.58,10.58,0,0,1-.54,3,27.93,27.93,0,0,1-1.23,3.79,4.92,4.92,0,0,1-2.45,2.92,2.57,2.57,0,0,1-1.91-.05c-.64-.27-1.28-.8-2-.62-1.12.28.19,3,.48,3.56a5,5,0,0,0,2.62,2.6,4.2,4.2,0,0,0,3.21-.08,5.14,5.14,0,0,0,2.26-2.14,19.06,19.06,0,0,0,2.1-6.19c.51-2.66,1.16-5.28,1.71-7.92a37.45,37.45,0,0,1,1.65-6A8.14,8.14,0,0,0,145.7,27.14Z"/><path d="M111.84,44.52a11.64,11.64,0,0,0-1.46-.84A7.88,7.88,0,0,1,108,41.49c-.71-1-1.27-2.12-2-3.09-.27-.34-.74-.74-.44-1.18s.65-.4.95-.59a14,14,0,0,0,4.34-5.05c1.69-3.09,1.15-7.74-2.21-9.48a5.32,5.32,0,0,0-3.63-.53,4.38,4.38,0,0,1-1.67.35c-.68-.11-2.85-1.57-3-.07-.13,1.12-.12,2.26-.34,3.37-.38,2-.85,4-1.21,6A49.38,49.38,0,0,0,97.62,43a15.41,15.41,0,0,0,.46,3.46,2.09,2.09,0,0,0,.74,1.16,1.46,1.46,0,0,0,2.13-.45,8.92,8.92,0,0,0,.54-3.25,45.45,45.45,0,0,1,1.06-5.68c.31-1.33,1.23.73,1.43,1.12,1,2,2.14,4.52,4.25,5.59a6.26,6.26,0,0,0,2.12.63,2.47,2.47,0,0,0,1.61-.18C112.39,45.14,112.21,44.81,111.84,44.52Zm-8.18-11.81a7.67,7.67,0,0,1,.17-2.61c.1-.86.17-1.72.2-2.58a2.36,2.36,0,0,1,.57-1.83c.6-.52,2.65-1.35,3.32-.62a.75.75,0,0,1,.16.63,9.44,9.44,0,0,1-1.79,3.93c-.4.58-.83,1.14-1.27,1.69l-.65.79C104.32,32.17,103.68,32.78,103.66,32.71Z"/><path d="M96.88,35.05c-.15-.17-.59.08-1,.42-1,.78-1.87,1.76-2.82,2.61a15.82,15.82,0,0,1-3.58,2.24c-.71.36-1.33.86-2.06,1.18-.48.2-1.91.58-2.15-.14a2.61,2.61,0,0,1,.1-1.07c.09-.58-.08-1.83.54-2.18.4-.24,1.22.1,1.7.06,1.87-.15,3.19-1.58,4.4-2.85a23,23,0,0,0,2.51-3.06,7.64,7.64,0,0,0,.89-1.64,4.93,4.93,0,0,0-1-4.64c-.42-.55-.93-1-1.36-1.56-1.09-1.33-3-.08-4,.72a19,19,0,0,0-6.54,11.35c-.5,2.67-.36,7.27,2.58,8.56,1.78.78,3.68.1,5.25-.83a15.68,15.68,0,0,0,4.58-3.59,8.77,8.77,0,0,0,1.31-2.45,18.65,18.65,0,0,0,.68-2.2C96.85,35.8,97,35.22,96.88,35.05Zm-9-2a30,30,0,0,1,2.23-3.16c.38-.48.69-1,1.11-1.45a3.5,3.5,0,0,1,1.52-1c.12,0,.48-.17.4.08a12.61,12.61,0,0,1-2.56,4.39l-.13.15c-.51.59-1.07,1.13-1.64,1.67s-1.08,1-1.62,1.57c-.07.07-.22.24-.31.11s.07-.49.12-.62a7.3,7.3,0,0,1,.41-.9C87.52,33.61,87.68,33.34,87.84,33.07Z"/><path d="M83.59,102.34a10.93,10.93,0,0,0-2.13.86,90.81,90.81,0,0,1-10.19,4.53c-.72.23-1.27,0-1.23-.81a43.2,43.2,0,0,1,2.29-10.7c1.06-3.45,1.71-7,2.66-10.46s2.1-6.64,2.68-10A15.71,15.71,0,0,0,78,70.42c-.2-1.11-1.64-4.29-3.24-3.76-.57.19-.72,1.77-.85,2.25-.34,1.2-.71,2.39-1.09,3.58-2,6.31-4.19,12.59-6.11,18.94-1.44,4.76-3.2,9.78-2.71,14.88a11.45,11.45,0,0,0,2.54,6.7c2.17,2.31,5.2,1.65,7.65.07a44,44,0,0,0,6.5-5,20.1,20.1,0,0,0,3.53-3.55c.3-.48,1-1.66.45-2.07A1.37,1.37,0,0,0,83.59,102.34Z"/><path d="M184,78.31l-.12,0,.15,0A.21.21,0,0,0,184,78.31Z"/><path d="M188,81.5c-1.29-2.09-3.4-2.87-5.59-3.73a21.54,21.54,0,0,1-4-2.17c-.81-.55-2.2-2-3.15-.92a38.5,38.5,0,0,0-3.93,6.16c-3,5.19-5.12,11.54-4.45,17.62a11.46,11.46,0,0,0,7.11,9.35.54.54,0,0,1-.05.11c2.3.27,4.38-.88,6.16-2.21a19.16,19.16,0,0,0,3.2-3.1,26,26,0,0,0,4.19-8,27.07,27.07,0,0,0,1.68-7.78,9.48,9.48,0,0,0-1.1-5.11A1,1,0,0,0,188,81.5Zm-7.65,9.31a27,27,0,0,1-5.17,10.5c-.88,1.12-1.33-.65-1.45-1.31-.56-2.83.43-5.68,1.57-8.24s2.4-5.12,3.61-7.67c.79-1.68,1.43,0,1.62,1A14.48,14.48,0,0,1,180.32,90.81Z"/><path d="M214.38,74.94a12.54,12.54,0,0,0-.94-1.53c-3.94-5.55-11.44-4.23-16-.24-2.39,2.09-6.49,3.18-4.48,7.19.93,1.88.83,2.81.5,4.82-.66,3.93-1.52,7.81-2.23,11.73-.67,3.66-1.65,7.72-.85,11.42a4.48,4.48,0,0,0,.78,1.88c2.1,2.63,5.78-1.08,7.66-2.12a44.37,44.37,0,0,0,6.2-3.77,32.93,32.93,0,0,0,7-7.46c3.69-5.48,5.72-12.39,3.68-18.87A18.88,18.88,0,0,0,214.38,74.94Zm-5.27,13.13a51.36,51.36,0,0,1-5.73,7.09c-1.83,1.89-4.06,4.48-6.68,5.2-.18-2.38.53-4.68.87-7a34.35,34.35,0,0,0,.3-5.46c-.05-2.64-.7-5,1.52-6.92a15.07,15.07,0,0,1,7.13-3.25c1.55-.29,3.51-.16,4.46,1.25C212.65,81.44,211.24,84.89,209.11,88.07Z"/><path d="M243.35,81.06c-1.58-4.67-7-7.06-9.56-1.39-1.77,4-3.7,7.79-5.56,11.7-.68,1.42-1.59,3.25-3,4-1.56-1.85.33-6.34.23-8.59-.1-1.93-.51-7.5-3.11-8-2.17-.39-3.72,7.84-4.14,9.42-1,3.8-1.75,8.08-.25,11.85.81,3,3.5,6.21,6.9,5.9,2.69-.24,4.3-3.07,5.76-5a81.66,81.66,0,0,0,4.48-7.45c-1.83,3-.67,7.44,1.18,10.2.92,1.37,5.86,5.16,5.47,1.1-.18-1.81-2.2-2.15-2-4.22.16-1.83,1.49-3.34,2.09-5,1.53-4.2,2.77-9.2,1.8-13.67A6.88,6.88,0,0,0,243.35,81.06Z"/><path d="M268,95.86l-.11,0,.05,0Z"/><path d="M266.68,75.12c-2.37-.6-6.43,1.86-8.37,3-8.71,5.23-18.05,17.24-11.46,27.52,2.38,3.71,6.77,3.75,10.52,2.29a18.22,18.22,0,0,0,7.06-5.08c1.28-1.47,5.19-4.39,4.51-6.7a13.4,13.4,0,0,0-4.11,1.55c-1.35.62-2.8.93-4.2,1.46-2.83,1.07-5.75,2.38-8.83,2.37-1.15,0-2.1-.52-2.08-1.83a4.46,4.46,0,0,1,.68-2c3-5.5,8.51-11.84,14.66-13.79,1.29-.41,3.14-.31,4.14-1.36C270.53,81.15,268.46,75.57,266.68,75.12Z"/><path d="M299.33,75.16a2.85,2.85,0,0,0-.2-.63,3.68,3.68,0,0,0-1.74-1.61c-2.25-1.16-4.63-1-7.06-.7-2.21.28-4.27.06-6.44.64-3.72,1-7.39,3-11.35,2.19a2.74,2.74,0,0,0-1.36-.07c-1.61.53-.64,2.94-.16,4a5.1,5.1,0,0,0,4.52,3c1.82.13,6.76-1.21,4.8,2.3a38.47,38.47,0,0,0-4.08,12.25c-.78,4.37-3.05,11.08.55,14.76a33.21,33.21,0,0,0,3.89,3.18c1.46-.53,2.17-1,1.81-2.66-2.08-9.81,3.79-18.83,5.13-28.27.29-2,1-3.25,2.91-3.91S299.91,78.41,299.33,75.16Z"/><path d="M60.59,102.75A48.42,48.42,0,0,0,54,105.47c-1.9.83-3.52,2.08-5.57,2.58-.44.1-1,.15-1.26-.2a1.27,1.27,0,0,1-.18-.72,15.81,15.81,0,0,1,.5-3.14c.9-4.88,2.27-9.66,3.57-14.45,1.23-4.56,2.85-9.16,3.62-13.88a12.91,12.91,0,0,0-.05-6.27c-.39-1.16-1.31-3.29-2.91-2.72a1.65,1.65,0,0,0-.85,1.12c-.4,1.17-.34,2.39-.69,3.55-2.55,8.46-5.74,16.72-8.11,25.23-1.2,4.28-1.92,9-.31,13.26,1.16,3.08,4,5.5,7.36,4.33a17.83,17.83,0,0,0,4.8-3,60.82,60.82,0,0,0,4.72-4.06,27,27,0,0,0,2.26-2.28c.2-.23,1.25-2.38,1-2.35A11.35,11.35,0,0,0,60.59,102.75ZM54.38,69c.12.23,0,.23-.12.23S54.38,69.11,54.38,69Zm1.82,39.46.5-.24A1.3,1.3,0,0,1,56.2,108.45Z"/><path d="M33.19,89.33a7.61,7.61,0,0,1,4.13-1.82,32.58,32.58,0,0,0,4.7-.94,9.06,9.06,0,0,0,1.2-.52,4.44,4.44,0,0,0,1.06-.65,1.18,1.18,0,0,0,.35-.67c.12-.47.21-1.08-.28-1.36a2.66,2.66,0,0,0-1.15-.16c-1.14,0-2.27-.08-3.4-.1-1.44,0-2.88,0-4.32,0a235.13,235.13,0,0,0,6.45-24.69c.49-2.63.63-5.9-1.61-7.35-1.58-1-3.69-.62-5.4.15a25.12,25.12,0,0,0-7.21,5.35A81.67,81.67,0,0,0,8.43,86.31a18.93,18.93,0,0,1-2,4.29,5.54,5.54,0,0,1-3.82,2.51c-.85.08-1.87,0-2.4.62s-.1,1.78.58,2.37A21.54,21.54,0,0,1,3,97.7c1.53,1.72.49,4.36-.14,6.57A15.27,15.27,0,0,0,3,112.9c.42,1.37,1.5,2.93,2.9,2.61.87-.21,1.4-1.09,1.79-1.89a42.41,42.41,0,0,0,3.94-12.73c.23-1.56.41-3.24,1.42-4.46a7.5,7.5,0,0,1,2.7-1.82,61.46,61.46,0,0,1,9.1-3.4,1.71,1.71,0,0,1,.67-.1c1,.11,1.05,1.49.88,2.45a52.09,52.09,0,0,0,2,26,6.31,6.31,0,0,0,1.19,2.3,2.36,2.36,0,0,0,2.35.76,2.4,2.4,0,0,0,1.45-2.15,7.83,7.83,0,0,0-.48-2.69,55.8,55.8,0,0,1-1.74-23.2C31.4,92.71,31.82,90.68,33.19,89.33ZM3,104.79v-.16l0,.06A.47.47,0,0,0,3,104.79Zm.48-.66h0a.64.64,0,0,0,0-.07ZM28.72,82.92a4.32,4.32,0,0,1-.43,1.22,2.92,2.92,0,0,1-1.95,1.21q-2.64.65-5.25,1.43c-1.72.52-3.45,1.28-5.21,1.63-.11,0-.26,0-.3-.09a.3.3,0,0,1,0-.16,9,9,0,0,1,.38-.9c.94-2,1.84-4,2.74-6.05.39-.86.77-1.73,1.17-2.59.83-1.78,1.72-3.54,2.65-5.27a76,76,0,0,1,6.26-9.86,38.39,38.39,0,0,1,4.09-4.55c.51-.48,3.56-3.76,4.26-3.3.24.16-.34,1.88-.42,2.15-.53,1.88-1.3,3.71-1.93,5.56s-1.38,3.84-2,5.77c-.31.89-.61,1.78-.88,2.68Q30.17,77.32,28.72,82.92Z"/><path d="M166.77,107.59c-.37-1-2.19-1.55-3-2.12a8.81,8.81,0,0,1-2.69-2.94A61,61,0,0,0,157.3,97c-.46-.66-1.8-1.78-.94-2.47a6.27,6.27,0,0,1,1.18-.61c3-1.36,5.1-4,6.75-6.8A13.55,13.55,0,0,0,166.08,77a8.81,8.81,0,0,0-6-6.58,12.21,12.21,0,0,0-5.51-.25,9.88,9.88,0,0,0-2.42.47,3.09,3.09,0,0,0-1.34,1.55A30.17,30.17,0,0,0,149.41,75a26.2,26.2,0,0,0-1.91,6c-.35,1.85-.6,3.71-.9,5.56s-.81,3.65-1.13,5.47a98.66,98.66,0,0,0-1.37,11.49c-.14,2.52-.66,7.33,2.41,8.49a2.17,2.17,0,0,0,2.19-.5c2.47-2,2-6.31,2.23-9.15.16-2-.15-4.7,1.22-6.39,1,.45,1.68,2.5,2.22,3.43,2.13,3.62,4.44,8,9,8.69.45.07,3.73.59,3.36-.48ZM156.53,93.45h0Zm-2.11-6a1.2,1.2,0,0,1-.82.13c-.76-.23-.46-1.81-.38-2.51.18-1.71.45-3.4.73-5.09s.36-3.15,1.91-4a6.56,6.56,0,0,1,3.39-.72c3.75.17-2.19,9-3.11,10.37A4.8,4.8,0,0,1,154.42,87.44Zm7.63,19Z"/><path d="M146.69,77.46a30.58,30.58,0,0,0,1.94-3.27,39.28,39.28,0,0,0,2-4.88c.9-2.66,1.51-5.58.12-8.19s-4.17-4.44-6.87-5.56a18.61,18.61,0,0,0-9.53-.89,45,45,0,0,0-21.57,8.94c-.17.13-.34.26-.5.4a49.46,49.46,0,0,0-8.87,9.24c-1,1.26-2.29,2.7-2.6,4.28a3.46,3.46,0,0,0,1.62,3.36c1.46,1,2.22,0,3.1-1.1,1.6-2.06,3.46-3.89,5.21-5.82.45-.49,2.28-2.84,3.07-2.18.5.41-.3,2.37-.42,2.85-.26,1-.58,2-.86,3-.6,2.13-1.28,4.24-2,6.34-1.39,4.21-2.86,8.39-4,12.68-.1.38-.19.77-.29,1.16-.91,3.75-1.62,7.54-2.29,11.35a21,21,0,0,0-.54,5.9,4.66,4.66,0,0,0,1.53,3.06c1.41,1.17,4,1.29,5.11-.37.74-1.1.69-2.54.92-3.79q.76-4.16,1.93-8.2c.6-2.14.91-4.36,1.34-6.54a3.83,3.83,0,0,1,4.44-3.78A16.47,16.47,0,0,0,122,95c4.92-1.2,9.24-3.93,13.38-6.75a47,47,0,0,0,8.89-7.69A33,33,0,0,0,146.69,77.46Zm4.35-9.4h0a.24.24,0,0,1-.06.2Zm-44.72,2.36v0Zm7.8,10.68Zm13.63,10.37h0l.22-.09C128,91.46,127.86,91.47,127.75,91.47ZM140,74.38,134.56,79A127,127,0,0,1,118,89c2.56-6.64,6.29-15.6,2.09-22.13a66.58,66.58,0,0,1,16.08-6.4c2.56-.7,10.83-1.4,11.06,2.56a5.3,5.3,0,0,1-.1,1.31,34.82,34.82,0,0,1-2.33,4.75A42.54,42.54,0,0,1,140,74.38Z"/></svg>