<svg xmlns="http://www.w3.org/2000/svg" viewBox="0 0 54 11"><defs><style>.cls-1{opacity:0.3;}.cls-2{fill:#fff;}</style></defs><g id="Layer_2" data-name="Layer 2"><g id="Layer_1-2" data-name="Layer 1"><path class="cls-1" d="M53.93,1A1.5,1.5,0,0,0,52,.07L27.5,7.92,3,.07A1.5,1.5,0,0,0,2,2.93l25,8h0a1.55,1.55,0,0,0,.92,0h0l25-8A1.5,1.5,0,0,0,53.93,1Z"/><path class="cls-2" d="M52.93,1A1.5,1.5,0,0,0,51,.07L26.5,7.92,2,.07A1.5,1.5,0,0,0,1,2.93l25,8h0a1.55,1.55,0,0,0,.92,0h0l25-8A1.5,1.5,0,0,0,52.93,1Z"/></g></g></svg>