<svg xmlns="http://www.w3.org/2000/svg" viewBox="0 0 37 36"><defs><style>.cls-1{opacity:0.3;}.cls-2{fill:#fff;}</style></defs><g id="Layer_2" data-name="Layer 2"><g id="Layer_1-2" data-name="Layer 1"><g class="cls-1"><path d="M16,4a11.06,11.06,0,0,1,8.78,17.7l-.9,1.2-1.16.91A10.89,10.89,0,0,1,16,26.13,11.07,11.07,0,0,1,16,4m0-4a15.07,15.07,0,0,0,0,30.13A14.83,14.83,0,0,0,25.17,27l8.42,8.45a2,2,0,0,0,2.82,0h0a2,2,0,0,0,0-2.84L28,24.1A15.06,15.06,0,0,0,16,0Z"/></g><path class="cls-2" d="M15,4a11.06,11.06,0,0,1,8.78,17.7l-.9,1.2-1.16.91A10.89,10.89,0,0,1,15,26.13,11.07,11.07,0,0,1,15,4m0-4a15.07,15.07,0,0,0,0,30.13A14.83,14.83,0,0,0,24.17,27l8.42,8.45a2,2,0,0,0,2.82,0h0a2,2,0,0,0,0-2.84L27,24.1A15.06,15.06,0,0,0,15,0Z"/></g></g></svg>