<svg xmlns="http://www.w3.org/2000/svg" viewBox="0 0 50 50"><defs><style>.cls-1{fill:#fff;}.cls-2{fill:#2e0202;}.cls-3{fill:#f39718;}</style></defs><g id="레이어_2" data-name="레이어 2"><g id="레이어_1-2" data-name="레이어 1"><rect class="cls-1" width="50" height="50"/><rect class="cls-2" width="50" height="50" rx="8.94"/><path class="cls-3" d="M23.91,14.71H18.22a.1.1,0,0,0-.1.1v1l-7.25,21a.09.09,0,0,0,.09.13h4.48a.1.1,0,0,0,.09-.07l1.67-5.17h7.92l1.74,5.17a.09.09,0,0,0,.09.07h4.84a.09.09,0,0,0,.09-.13L24,14.78A.1.1,0,0,0,23.91,14.71ZM18.47,27.35l2.63-8.81,2.71,8.81Z"/><circle class="cls-3" cx="36.5" cy="15.71" r="2.64"/><rect class="cls-3" x="34.06" y="20.12" width="4.7" height="16.81" rx="0.1"/></g></g></svg>