<svg xmlns="http://www.w3.org/2000/svg" viewBox="0 0 50 50"><defs><style>.cls-1{fill:#fff;}.cls-2{fill:#1c6caa;}.cls-3{fill:#121212;}.cls-4{fill:#37a0ce;}.cls-5{fill:#ebebeb;}</style></defs><g id="레이어_2" data-name="레이어 2"><g id="레이어_1-2" data-name="레이어 1"><rect class="cls-1" width="50" height="50"/><polygon class="cls-2" points="9.07 11.44 40.93 11.44 37.94 43.77 25 47.66 11.96 43.77 9.07 11.44"/><polygon class="cls-3" points="20.74 2.34 20.74 4.02 17.86 4.02 17.86 6.74 20.74 6.74 20.74 8.43 15.86 8.43 15.86 2.34 20.74 2.34"/><polygon class="cls-3" points="21.83 2.34 21.83 3.82 24.59 6.78 21.83 6.78 21.83 8.43 27.46 8.43 27.46 7.03 24.72 4.01 27.37 4.02 27.37 2.34 21.83 2.34"/><polygon class="cls-3" points="28.51 2.34 28.51 3.82 31.27 6.78 28.51 6.78 28.51 8.43 34.14 8.43 34.14 7.03 31.4 4.01 34.05 4.02 34.05 2.34 28.51 2.34"/><polygon class="cls-4" points="24.95 14.07 24.95 44.59 35.3 41.71 37.7 14.07 24.95 14.07"/><polygon class="cls-1" points="14.95 17.69 34.95 17.69 33.13 38.23 24.95 40.52 16.74 38.23 16.16 31.83 20.16 31.83 20.5 35.01 24.95 36.25 29.44 35.05 29.86 29.85 20.54 29.85 20.23 25.92 30.14 25.92 30.48 21.69 15.3 21.69 14.95 17.69"/><polygon class="cls-5" points="20.54 29.85 24.95 29.85 24.95 25.92 20.23 25.92 20.54 29.85"/><polygon class="cls-5" points="24.95 17.69 14.95 17.69 15.3 21.69 24.95 21.69 24.95 17.69"/><polygon class="cls-5" points="24.95 36.25 20.5 35.01 20.16 31.83 16.16 31.83 16.74 38.23 24.95 40.52 24.95 36.25"/></g></g></svg>