<svg xmlns="http://www.w3.org/2000/svg" viewBox="0 0 50 50"><defs><style>.cls-1{fill:#fff;}.cls-2{fill:#f7f7f7;}.cls-3{fill:#ec6e60;}.cls-4{fill:#e54e23;}.cls-5{fill:#765da6;}.cls-6{fill:#36b0e6;}.cls-7{fill:#43b57c;}</style></defs><g id="레이어_2" data-name="레이어 2"><g id="레이어_1-2" data-name="레이어 1"><rect class="cls-1" width="50" height="50"/><rect class="cls-2" x="0.01" width="49.97" height="49.97" rx="8.93"/><rect class="cls-3" x="12.4" y="7.02" width="25.2" height="12.66" rx="6.04"/><path class="cls-4" d="M25,7H18.44a6.05,6.05,0,0,0-6,6v.57a6.06,6.06,0,0,0,6,6H25Z"/><path class="cls-5" d="M25,19.67H18.44a6.06,6.06,0,0,0-6,6v.57a6.06,6.06,0,0,0,6,6H25Z"/><path class="cls-6" d="M31.33,19.67h0A6.35,6.35,0,0,0,25,26h0a6.35,6.35,0,0,0,6.33,6.33h0a6.27,6.27,0,0,0,6.27-6.27v-.12A6.27,6.27,0,0,0,31.33,19.67Z"/><path class="cls-7" d="M25,32.33H18.44a6.05,6.05,0,0,0-6,6v.57a6.06,6.06,0,0,0,6,6h0A6.55,6.55,0,0,0,25,38.43Z"/></g></g></svg>