<svg xmlns="http://www.w3.org/2000/svg" viewBox="0 0 50 50"><defs><style>.cls-1{fill:#fff;}.cls-2{fill:#040000;}.cls-3{fill:#d14823;}.cls-4{fill:#dd602b;}.cls-5{fill:#f7f7f7;}.cls-6{fill:#e4e4e4;}</style></defs><g id="레이어_2" data-name="레이어 2"><g id="레이어_1-2" data-name="레이어 1"><rect class="cls-1" width="50" height="50"/><polygon class="cls-2" points="15.9 2.34 15.9 4.29 13.84 4.29 13.84 2.34 11.72 2.34 11.72 8.36 13.84 8.36 13.84 6.42 15.9 6.42 15.9 8.36 18.03 8.36 18.03 2.34 15.9 2.34"/><polygon class="cls-2" points="24.03 2.34 18.72 2.34 18.72 4.11 20.49 4.11 20.49 8.36 22.26 8.36 22.26 4.11 24.03 4.11 24.03 2.34"/><polygon class="cls-2" points="34.97 6.59 34.97 2.34 33.2 2.34 33.2 6.59 33.2 8.36 34.97 8.36 37.83 8.36 37.83 6.59 34.97 6.59"/><polygon class="cls-2" points="30.04 2.34 28.6 4.29 27.16 2.34 25.39 2.34 25.39 8.36 27.16 8.36 27.16 5.54 28.54 7.3 30.04 5.54 30.04 8.36 31.81 8.36 31.81 2.34 30.04 2.34"/><polygon class="cls-3" points="8.96 11.2 41.04 11.2 38.02 43.75 25 47.66 11.87 43.75 8.96 11.2"/><polygon class="cls-4" points="25 14.18 25 44.9 35.41 42 37.83 14.18 25 14.18"/><polygon class="cls-5" points="35.03 17.96 14.97 17.96 15.94 29.9 29.81 29.9 29.43 35.02 24.97 36.62 20.31 35.19 20.23 32.12 16.02 32.08 16.7 38.47 24.73 40.7 33.22 38.39 34.35 26.2 19.81 26.2 19.47 22.08 34.65 22.08 35.03 17.96"/><polygon class="cls-6" points="25 26.2 19.81 26.2 19.47 22.08 25 22.08 25 17.96 14.97 17.96 15.94 29.9 25 29.9 25 26.2"/><polygon class="cls-6" points="25 36.61 24.97 36.62 20.31 35.19 20.23 32.12 16.02 32.08 16.7 38.47 24.73 40.7 25 40.63 25 36.61"/></g></g></svg>