<svg xmlns="http://www.w3.org/2000/svg" viewBox="0 0 50 50"><defs><style>.cls-1{fill:#fff;}.cls-2{fill:#bf423f;}.cls-3{fill:#df4846;}.cls-4{fill:#f7e4de;}.cls-5{fill:#040000;}</style></defs><g id="레이어_2" data-name="레이어 2"><g id="레이어_1-2" data-name="레이어 1"><rect class="cls-1" width="50" height="50"/><polygon class="cls-2" points="9.18 11.69 40.82 11.69 37.85 43.8 25 47.66 12.05 43.8 9.18 11.69"/><polygon class="cls-3" points="25 14.52 25 44.83 35.27 41.97 37.66 14.52 25 14.52"/><path class="cls-1" d="M35.38,17H14.62l1.54,19.59h7.56l-.2,1.8-5,.66.35,2.52,6.59-.76.67-4.22h7.54ZM30.83,32.72h-4.1l.59-3.64H24.59l-.42,3.64h-5l-.81-12.35H31.39Z"/><polygon class="cls-4" points="25.06 29.08 24.59 29.08 24.17 32.72 19.14 32.72 18.33 20.37 25.06 20.37 25.06 16.98 14.62 16.98 16.16 36.57 23.72 36.57 23.52 38.37 18.51 39.03 18.86 41.55 25.06 40.83 25.06 29.08"/><polygon class="cls-5" points="12.34 2.34 12.34 3.06 12.85 3.06 12.85 7.13 11.47 7.13 11.47 6.64 10.54 6.64 10.54 8.55 14.27 8.55 14.27 2.34 12.34 2.34"/><path class="cls-5" d="M15.17,2.34V8.55h4.06V2.34Zm1.24,4.8V3.77H18.2V6.42l-1-1.12L16.47,6l.94,1.17h-1Z"/><polygon class="cls-5" points="23.55 2.34 23.55 6.95 21.75 6.96 21.75 2.34 20.17 2.34 20.17 8.55 22.07 8.55 22.07 8.86 23.21 8.86 23.21 8.55 25.11 8.55 25.11 2.34 23.55 2.34"/><polygon class="cls-5" points="25.8 2.34 25.8 8.76 30.27 8.76 30.27 7 27.4 7 27.4 6.24 30.07 6.24 30.07 4.85 27.4 4.85 27.4 3.94 30.2 3.94 30.2 2.38 25.8 2.34"/><path class="cls-5" d="M34.37,6.64H35a0,0,0,0,0,0,0V2.39a0,0,0,0,0,0-.05H31a0,0,0,0,0-.05.05V8.71a0,0,0,0,0,.05,0h1.16a0,0,0,0,0,.05,0V7a.05.05,0,0,1,.09,0l1.14,1.82,0,0h1.7a0,0,0,0,0,0-.06l-.89-2A0,0,0,0,1,34.37,6.64Zm-.84-1.47H32.18a.05.05,0,0,1,0,0V3.65a.05.05,0,0,1,0,0h1.35a0,0,0,0,1,0,0V5.12A0,0,0,0,1,33.53,5.17Z"/><polygon class="cls-5" points="35.55 2.34 37.13 2.34 37.95 4.54 38.75 2.34 40.21 2.34 38.59 6.43 38.59 8.76 37.21 8.76 37.21 6.43 35.55 2.34"/></g></g></svg>