<svg xmlns="http://www.w3.org/2000/svg" viewBox="0 0 50 50"><defs><style>.cls-1{fill:#fff;}.cls-2{fill:#dc9d2b;}.cls-3{fill:#e6b82c;}.cls-4{fill:#0d0d0e;}.cls-5{fill:#eaebec;}</style></defs><g id="레이어_2" data-name="레이어 2"><g id="레이어_1-2" data-name="레이어 1"><rect class="cls-1" width="50" height="50"/><polygon class="cls-2" points="8.96 11.18 41.05 11.18 38.03 43.75 25 47.66 11.86 43.75 8.96 11.18"/><polygon class="cls-3" points="25 14.05 25 44.79 35.42 41.88 37.84 14.05 25 14.05"/><polygon class="cls-4" points="22.11 2.34 22.11 6.38 19.23 6.38 19.23 8.47 24.1 8.47 24.1 2.34 22.11 2.34"/><polygon class="cls-4" points="25.09 2.34 25.09 3.83 27.88 6.81 25.09 6.81 25.09 8.47 30.77 8.47 30.77 7.07 28 4.02 30.67 4.03 30.67 2.34 25.09 2.34"/><polygon class="cls-1" points="17.29 15.44 24.78 15.37 33.31 15.44 34.05 24.02 30 24.02 29.55 19.94 24.79 19.7 21 19.84 20.44 26.06 24.71 26.03 34.05 26.13 32.92 38.46 24.66 40.79 16.57 38.43 15.95 32.09 20.07 32.09 20.34 35.17 24.7 36.51 29.08 35.24 29.67 30.17 15.95 30.17 17.29 15.44"/><polygon class="cls-5" points="25 26.03 24.71 26.03 20.44 26.06 21 19.84 24.79 19.7 25 19.71 25 15.37 24.78 15.37 17.29 15.44 15.95 30.17 25 30.17 25 26.03"/><polygon class="cls-5" points="25 36.42 24.7 36.51 20.34 35.17 20.07 32.09 15.95 32.09 16.57 38.43 24.66 40.79 25 40.7 25 36.42"/></g></g></svg>