<svg xmlns="http://www.w3.org/2000/svg" viewBox="0 0 40 40"><defs><style>.cls-1{fill:#f7f7f7;}.cls-2{fill:#181818;}</style></defs><g id="레이어_2" data-name="레이어 2"><g id="레이어_1-2" data-name="레이어 1"><rect class="cls-1" width="40" height="40"/><path class="cls-2" d="M31.6,26.91a25.13,25.13,0,0,0-3.15-2,4.07,4.07,0,0,0-1.5-.52c-1.69-.14-3,2-3.5,3.34l0,0a.64.64,0,0,0-.18.06,3,3,0,0,1-1.56-.33,16.92,16.92,0,0,1-5.16-4.21c-1.71-2-3.58-3.94-4.09-6.58a1.46,1.46,0,0,1,0-.55c.16-.8,1.67-.92,2.24-1.3a3.19,3.19,0,0,0,1.54-2,3.76,3.76,0,0,0-.53-2.15c-.88-1.84-2.32-6.13-5-5.62A5.44,5.44,0,0,0,6,11.38a20.09,20.09,0,0,0,2.17,7,32.06,32.06,0,0,0,4.78,6.52c3.49,4,7.54,7.78,12.72,9.39,2,.63,5.1,1.11,6.64-.72A9.23,9.23,0,0,0,34,30.54c.38-1.35-.52-2.28-1.53-3ZM7.15,6.89h0l0,0ZM31.92,33.94v0h0Z"/></g></g></svg>