<svg xmlns="http://www.w3.org/2000/svg" viewBox="0 0 50.28 50.28"><defs><style>.cls-1{fill:#fff;}.cls-2{fill:#041d34;}.cls-3{fill:#469cd7;}</style></defs><g id="레이어_2" data-name="레이어 2"><g id="레이어_1-2" data-name="레이어 1"><rect class="cls-1" x="0.02" width="50" height="50"/><rect class="cls-2" width="50.28" height="50.28" rx="8.99"/><path class="cls-3" d="M40.37,19v3.78a.11.11,0,0,1-.14.1c-.95-.32-6.74-2.16-7.06.1-.11.74.84,1.16,1.36,1.45,2.26,1.29,5.28,1.93,6.36,4.62a4.73,4.73,0,0,1-1,4.77A6.29,6.29,0,0,1,36,35.89l-.11,0c-4.68.63-7.17-1-7.17-1V30.82a.1.1,0,0,1,.14-.09c.32.16,1,.42,1.15.46.52.19,1.05.38,1.58.54a6,6,0,0,0,4,.17,1.57,1.57,0,0,0,.89-.74c.48-1.07-1.24-1.55-1.92-1.84-1.75-.77-3.69-1.52-4.9-3.09A4.49,4.49,0,0,1,28.73,23c.47-5.47,7.71-5.38,11.57-4.11A.1.1,0,0,1,40.37,19Z"/><path class="cls-3" d="M26.54,20.1a7.55,7.55,0,0,0-1.25-3.75c-1.54-2.28-4.17-3.23-6.79-3.54a30.37,30.37,0,0,0-5.56-.07c-.91.06-1.82.14-2.72.27V35.38a.09.09,0,0,0,.1.1h4.5a.1.1,0,0,0,.1-.1v-7a17.17,17.17,0,0,0,2.06,0,14.94,14.94,0,0,0,4.39-.76,7.67,7.67,0,0,0,4-2.95A7.8,7.8,0,0,0,26.54,20.1ZM15,24.27V17s6.83-.86,6.83,3.61S15,24.27,15,24.27Z"/></g></g></svg>