<svg xmlns="http://www.w3.org/2000/svg" viewBox="0 0 50 50"><defs><style>.cls-1{fill:#fff;}.cls-2{fill:#411233;}.cls-3{fill:#bf72ac;}</style></defs><g id="레이어_2" data-name="레이어 2"><g id="레이어_1-2" data-name="레이어 1"><rect class="cls-1" width="50" height="50"/><rect class="cls-2" width="50" height="50" rx="8.94"/><path class="cls-3" d="M7,12.88l6.5,11L7,34.89a.1.1,0,0,0,.08.15h5a.12.12,0,0,0,.09,0l4.31-8.29L21,35a.09.09,0,0,0,.08,0h5.52a.1.1,0,0,0,.08-.15L19.86,23.55l6.47-10.67a.1.1,0,0,0-.09-.15H21.45a.11.11,0,0,0-.09,0L16.87,21.1l-4.39-8.32a.11.11,0,0,0-.09,0H7.12A.1.1,0,0,0,7,12.88Z"/><path class="cls-3" d="M42.89,32.22l0-21.23a.1.1,0,0,0-.1-.1H38.23a.1.1,0,0,0-.1.1v6.83s-10.59-1.36-11,9.13C28.25,39.93,43,34,43,34Zm-4.72-1s-6.28,1.32-6.2-4.69,6.2-4.69,6.2-4.69Z"/></g></g></svg>